<svg width="182" height="182" viewBox="0 0 182 182" fill="none" xmlns="http://www.w3.org/2000/svg">
<path d="M140.14 91C133.778 85.6669 125.69 82.836 117.39 83.0375H64.0414C61.609 83.0989 59.1893 82.6689 56.9269 81.7732C54.6646 80.8775 52.6063 79.5345 50.8752 77.8246C49.1441 76.1148 47.7758 74.0732 46.8522 71.8221C45.9287 69.571 45.4688 67.1567 45.5002 64.7237C45.4409 63.7768 45.4409 62.827 45.5002 61.88C46.2174 57.5325 48.4971 53.5964 51.9111 50.8108C55.325 48.0252 59.6385 46.5816 64.0414 46.7512H116.594C120.881 46.7475 125.03 48.2665 128.3 51.0374C131.571 53.8083 133.752 57.6509 134.453 61.88H151.515C150.801 53.1091 146.812 44.9282 140.342 38.9638C133.872 32.9994 125.394 29.6883 116.594 29.6887H98.6214V3.52625H84.4027V29.6887H64.0414C55.2415 29.6883 46.7637 32.9994 40.2935 38.9638C33.8232 44.9282 29.8345 53.1091 29.1202 61.88C29.0635 62.8271 29.0635 63.7767 29.1202 64.7237C29.1202 69.3097 30.0235 73.8507 31.7784 78.0875C33.5334 82.3244 36.1057 86.1741 39.3484 89.4168C45.8974 95.9658 54.7798 99.645 64.0414 99.645H117.959C120.372 99.5843 122.773 100.007 125.02 100.889C127.267 101.771 129.315 103.093 131.043 104.779C132.771 106.464 134.144 108.479 135.081 110.703C136.019 112.928 136.501 115.317 136.5 117.731C136.618 119.018 136.618 120.312 136.5 121.599C135.597 125.601 133.36 129.177 130.156 131.74C126.952 134.304 122.972 135.701 118.869 135.704H65.4064C61.3035 135.701 57.3233 134.304 54.1194 131.74C50.9155 129.177 48.6784 125.601 47.7752 121.599H30.5989C31.5765 130.145 35.6643 138.034 42.0833 143.761C48.5024 149.487 56.8041 152.652 65.4064 152.652H84.4027V178.474H98.6214V152.652H117.959C126.561 152.652 134.863 149.487 141.282 143.761C147.701 138.034 151.789 130.145 152.766 121.599V117.731C152.753 112.622 151.614 107.578 149.432 102.959C147.25 98.3387 144.078 94.2559 140.14 91Z" fill="black" fill-opacity="0.7"/>
</svg>
