<svg width="72" height="72" viewBox="0 0 72 72" fill="none" xmlns="http://www.w3.org/2000/svg">
<path d="M56.9998 63L56.9998 8.99998C56.9981 8.45326 56.8473 7.91736 56.5637 7.44996C56.2801 6.98256 55.8743 6.60136 55.3902 6.3474C54.906 6.09344 54.3617 5.97633 53.816 6.00868C53.2702 6.04103 52.7436 6.22161 52.2928 6.53099L13.2928 33.531C11.6758 34.65 11.6758 37.344 13.2928 38.466L52.2928 65.466C52.7427 65.7785 53.2695 65.9618 53.8162 65.9959C54.3629 66.03 54.9085 65.9136 55.3936 65.6594C55.8788 65.4053 56.2851 65.023 56.5683 64.5541C56.8514 64.0852 57.0007 63.5477 56.9998 63ZM20.2708 36L50.9998 14.724L50.9998 57.276L20.2708 36Z" fill="#F8F8F8" fill-opacity="0.5"/>
</svg>
