<svg width="72" height="72" viewBox="0 0 72 72" fill="none" xmlns="http://www.w3.org/2000/svg">
<path d="M14.9999 9.00001L14.9999 63C15.0016 63.5467 15.1524 64.0826 15.4361 64.55C15.7197 65.0174 16.1254 65.3986 16.6096 65.6526C17.0937 65.9066 17.638 66.0237 18.1838 65.9913C18.7295 65.959 19.2562 65.7784 19.7069 65.469L58.7069 38.469C60.3239 37.35 60.3239 34.656 58.7069 33.534L19.7069 6.53401C19.2571 6.22148 18.7302 6.03821 18.1835 6.00411C17.6369 5.97 17.0913 6.08636 16.6061 6.34055C16.1209 6.59474 15.7147 6.97704 15.4315 7.4459C15.1483 7.91477 14.9991 8.45227 14.9999 9.00001ZM51.7289 36L20.9999 57.276L20.9999 14.724L51.7289 36Z" fill="#F8F8F8" fill-opacity="0.5"/>
</svg>
