<svg width="70" height="70" viewBox="0 0 70 70" fill="none" xmlns="http://www.w3.org/2000/svg">
<path d="M39.375 26.25C39.375 27.2563 39.2044 28.2275 38.8937 29.1287C36.187 30.5914 33.7844 32.5574 31.815 34.9212C30.0502 35.1635 28.2535 34.8614 26.665 34.0552C25.0766 33.249 23.772 31.9772 22.9256 30.4098C22.0793 28.8423 21.7315 27.0539 21.9288 25.2835C22.1261 23.5131 22.859 21.8451 24.0297 20.5024C25.2003 19.1597 26.7528 18.2063 28.4798 17.7696C30.2068 17.3329 32.0259 17.4336 33.6941 18.0585C35.3623 18.6833 36.8 19.8023 37.8151 21.2661C38.8303 22.7299 39.3745 24.4687 39.375 26.25ZM52.5 21.875V26.3462C53.9802 26.4803 55.4448 26.7513 56.875 27.1556V14.2188C56.875 11.2 54.425 8.75 51.4062 8.75H9.84375C6.825 8.75 4.375 11.2 4.375 14.2188V38.2812C4.375 41.3 6.825 43.75 9.84375 43.75H27.1556C27.5887 42.2231 28.1619 40.7619 28.875 39.375H17.5V37.1875C17.5 35.447 16.8086 33.7778 15.5779 32.5471C14.3472 31.3164 12.678 30.625 10.9375 30.625H8.75V21.875H10.9375C12.678 21.875 14.3472 21.1836 15.5779 19.9529C16.8086 18.7222 17.5 17.053 17.5 15.3125V13.125H43.75V15.3125C43.75 17.053 44.4414 18.7222 45.6721 19.9529C46.9028 21.1836 48.572 21.875 50.3125 21.875H52.5ZM15.3125 48.125H26.3462C26.2151 49.5804 26.2151 51.0446 26.3462 52.5H19.6875C18.3016 52.5005 16.9511 52.0623 15.8296 51.248C14.708 50.4338 13.8731 49.2854 13.4444 47.9675C14.0525 48.0725 14.6737 48.125 15.3125 48.125ZM61.25 28.875C62.8162 29.6756 64.2819 30.6425 65.625 31.7494V24.0625C65.6257 22.7048 65.2053 21.3803 64.4217 20.2716C63.6382 19.1629 62.53 18.3244 61.25 17.8719V28.875ZM35 26.25C35 25.0897 34.5391 23.9769 33.7186 23.1564C32.8981 22.3359 31.7853 21.875 30.625 21.875C29.4647 21.875 28.3519 22.3359 27.5314 23.1564C26.7109 23.9769 26.25 25.0897 26.25 26.25C26.25 27.4103 26.7109 28.5231 27.5314 29.3436C28.3519 30.1641 29.4647 30.625 30.625 30.625C31.7853 30.625 32.8981 30.1641 33.7186 29.3436C34.5391 28.5231 35 27.4103 35 26.25ZM9.84375 13.125H13.125V15.3125C13.125 15.8927 12.8945 16.4491 12.4843 16.8593C12.0741 17.2695 11.5177 17.5 10.9375 17.5H8.75V14.2188C8.75 13.9287 8.86523 13.6505 9.07035 13.4454C9.27547 13.2402 9.55367 13.125 9.84375 13.125ZM8.75 38.2812V35H10.9375C11.5177 35 12.0741 35.2305 12.4843 35.6407C12.8945 36.0509 13.125 36.6073 13.125 37.1875V39.375H9.84375C9.55367 39.375 9.27547 39.2598 9.07035 39.0546C8.86523 38.8495 8.75 38.5713 8.75 38.2812ZM52.5 17.5H50.3125C49.7323 17.5 49.1759 17.2695 48.7657 16.8593C48.3555 16.4491 48.125 15.8927 48.125 15.3125V13.125H51.4062C51.6963 13.125 51.9745 13.2402 52.1796 13.4454C52.3848 13.6505 52.5 13.9287 52.5 14.2188V17.5ZM39.6594 36.9338C39.9744 38.0565 40.0619 39.2309 39.9166 40.388C39.7714 41.545 39.3963 42.6614 38.8134 43.6714C38.2306 44.6814 37.4517 45.5647 36.5226 46.2694C35.5935 46.9741 34.5329 47.486 33.4031 47.775L31.3819 48.2913C31.2362 49.7702 31.2509 51.2605 31.4256 52.7362L32.9569 53.0994C34.1168 53.3737 35.2085 53.8821 36.1649 54.5934C37.1213 55.3046 37.9223 56.2039 38.5188 57.2358C39.1153 58.2677 39.4946 59.4107 39.6336 60.5945C39.7725 61.7783 39.6682 62.978 39.3269 64.12L38.7712 65.9706C39.9 66.8588 41.1206 67.62 42.4244 68.2369L43.8462 66.7275C44.6648 65.8607 45.6519 65.1704 46.7468 64.6989C47.8418 64.2273 49.0216 63.9845 50.2138 63.9853C51.4059 63.9861 52.5854 64.2306 53.6797 64.7036C54.774 65.1767 55.7601 65.8684 56.5775 66.7362L58.0519 68.3025C59.3294 67.7119 60.5369 66.9813 61.6481 66.1238L60.9656 63.6912C60.6505 62.5685 60.5631 61.3941 60.7083 60.237C60.8536 59.08 61.2287 57.9636 61.8116 56.9536C62.3944 55.9436 63.1733 55.0603 64.1024 54.3556C65.0315 53.6509 66.0921 53.139 67.2219 52.85L69.2344 52.3337C69.3808 50.8534 69.3661 49.3615 69.1906 47.8844L67.6681 47.5256C66.5077 47.2514 65.4156 46.7429 64.4588 46.0313C63.502 45.3197 62.7007 44.4201 62.1042 43.3876C61.5077 42.3552 61.1285 41.2117 60.9898 40.0274C60.8512 38.8431 60.9561 37.6429 61.2981 36.5006L61.8494 34.6588C60.7218 33.7668 59.4962 33.0065 58.1962 32.3925L56.7744 33.8931C55.9561 34.7602 54.9693 35.4508 53.8745 35.9228C52.7797 36.3947 51.6 36.6379 50.4078 36.6375C49.2156 36.6371 48.0361 36.3931 46.9416 35.9204C45.8471 35.4477 44.8608 34.7563 44.0431 33.8888L42.5687 32.3225C41.2943 32.9114 40.0896 33.6407 38.9769 34.4969L39.6594 36.9338ZM50.3081 54.6875C49.1478 54.6875 48.035 54.2266 47.2145 53.4061C46.3941 52.5856 45.9331 51.4728 45.9331 50.3125C45.9331 49.1522 46.3941 48.0394 47.2145 47.2189C48.035 46.3984 49.1478 45.9375 50.3081 45.9375C51.4684 45.9375 52.5812 46.3984 53.4017 47.2189C54.2222 48.0394 54.6831 49.1522 54.6831 50.3125C54.6831 51.4728 54.2222 52.5856 53.4017 53.4061C52.5812 54.2266 51.4684 54.6875 50.3081 54.6875Z" fill="#F8F8F8"/>
</svg>
