<svg width="72" height="72" viewBox="0 0 72 72" fill="none" xmlns="http://www.w3.org/2000/svg">
<path d="M16.2 20.7C16.2 18.5517 17.0534 16.4915 18.5724 14.9724C20.0915 13.4534 22.1517 12.6 24.3 12.6C26.4482 12.6 28.5085 13.4534 30.0276 14.9724C31.5466 16.4915 32.4 18.5517 32.4 20.7C32.4 22.8483 31.5466 24.9085 30.0276 26.4276C28.5085 27.9466 26.4482 28.8 24.3 28.8C22.1517 28.8 20.0915 27.9466 18.5724 26.4276C17.0534 24.9085 16.2 22.8483 16.2 20.7ZM24.3 9C21.197 9 18.221 10.2327 16.0268 12.4269C13.8327 14.621 12.6 17.597 12.6 20.7C12.6 23.803 13.8327 26.779 16.0268 28.9731C18.221 31.1673 21.197 32.4 24.3 32.4C27.403 32.4 30.379 31.1673 32.5731 28.9731C34.7673 26.779 36 23.803 36 20.7C36 17.597 34.7673 14.621 32.5731 12.4269C30.379 10.2327 27.403 9 24.3 9ZM36 36C36.8964 36 37.7532 36.162 38.5452 36.4644C36.7956 37.0476 35.2836 38.1564 34.2 39.6H12.6C11.6452 39.6 10.7295 39.9793 10.0544 40.6544C9.37928 41.3295 8.99999 42.2452 8.99999 43.2V43.4808L9.02519 43.7796C9.22026 45.5053 9.83586 47.1568 10.818 48.5892C12.5712 51.1236 16.2468 54 24.3 54C27.7308 54 30.3696 53.478 32.4 52.6824V55.8C32.4 56.0304 32.4072 56.2572 32.4252 56.484C30.186 57.1824 27.504 57.6 24.3 57.6C15.2532 57.6 10.3788 54.288 7.85519 50.6376C6.52616 48.7017 5.69747 46.4668 5.44319 44.1324C5.42168 43.9229 5.40727 43.7128 5.39999 43.5024V43.2C5.39999 41.2904 6.15856 39.4591 7.50882 38.1088C8.85909 36.7586 10.6904 36 12.6 36H36ZM46.8 23.4C46.8 21.9678 47.3689 20.5943 48.3816 19.5816C49.3943 18.5689 50.7678 18 52.2 18C53.6322 18 55.0057 18.5689 56.0184 19.5816C57.0311 20.5943 57.6 21.9678 57.6 23.4C57.6 24.8322 57.0311 26.2057 56.0184 27.2184C55.0057 28.2311 53.6322 28.8 52.2 28.8C50.7678 28.8 49.3943 28.2311 48.3816 27.2184C47.3689 26.2057 46.8 24.8322 46.8 23.4ZM52.2 14.4C49.813 14.4 47.5239 15.3482 45.836 17.036C44.1482 18.7239 43.2 21.0131 43.2 23.4C43.2 25.7869 44.1482 28.0761 45.836 29.764C47.5239 31.4518 49.813 32.4 52.2 32.4C54.5869 32.4 56.8761 31.4518 58.564 29.764C60.2518 28.0761 61.2 25.7869 61.2 23.4C61.2 21.0131 60.2518 18.7239 58.564 17.036C56.8761 15.3482 54.5869 14.4 52.2 14.4ZM36 45C36 43.5678 36.5689 42.1943 37.5816 41.1816C38.5943 40.1689 39.9678 39.6 41.4 39.6H63C64.4322 39.6 65.8057 40.1689 66.8184 41.1816C67.8311 42.1943 68.4 43.5678 68.4 45V55.8C68.4 57.2322 67.8311 58.6057 66.8184 59.6184C65.8057 60.6311 64.4322 61.2 63 61.2H41.4C39.9678 61.2 38.5943 60.6311 37.5816 59.6184C36.5689 58.6057 36 57.2322 36 55.8V45ZM39.6 45V48.6C41.0322 48.6 42.4057 48.0311 43.4184 47.0184C44.4311 46.0057 45 44.6322 45 43.2H41.4C41.4 43.6774 41.2104 44.1352 40.8728 44.4728C40.5352 44.8104 40.0774 45 39.6 45ZM64.8 48.6V45C64.3226 45 63.8648 44.8104 63.5272 44.4728C63.1896 44.1352 63 43.6774 63 43.2H59.4C59.4 44.6322 59.9689 46.0057 60.9816 47.0184C61.9943 48.0311 63.3678 48.6 64.8 48.6ZM59.4 57.6H63C63 57.1226 63.1896 56.6648 63.5272 56.3272C63.8648 55.9896 64.3226 55.8 64.8 55.8V52.2C63.3678 52.2 61.9943 52.7689 60.9816 53.7816C59.9689 54.7943 59.4 56.1678 59.4 57.6ZM39.6 52.2V55.8C40.0774 55.8 40.5352 55.9896 40.8728 56.3272C41.2104 56.6648 41.4 57.1226 41.4 57.6H45C45 56.1678 44.4311 54.7943 43.4184 53.7816C42.4057 52.7689 41.0322 52.2 39.6 52.2ZM52.2 55.8C53.6322 55.8 55.0057 55.2311 56.0184 54.2184C57.0311 53.2057 57.6 51.8322 57.6 50.4C57.6 48.9678 57.0311 47.5943 56.0184 46.5816C55.0057 45.5689 53.6322 45 52.2 45C50.7678 45 49.3943 45.5689 48.3816 46.5816C47.3689 47.5943 46.8 48.9678 46.8 50.4C46.8 51.8322 47.3689 53.2057 48.3816 54.2184C49.3943 55.2311 50.7678 55.8 52.2 55.8Z" fill="white"/>
</svg>
