<svg width="72" height="72" viewBox="0 0 72 72" fill="none" xmlns="http://www.w3.org/2000/svg">
<g clip-path="url(#clip0_1_515)">
<path d="M34.5 9C37.4491 9.00023 40.3171 9.96572 42.6659 11.749C45.0148 13.5323 46.7154 16.0354 47.508 18.876L47.664 19.491L53.274 18.09C53.684 17.9879 54.111 17.9736 54.527 18.0481C54.9429 18.1225 55.3385 18.2839 55.6877 18.5219C56.0369 18.7598 56.3319 19.0688 56.5534 19.4286C56.7749 19.7885 56.9179 20.1911 56.973 20.61L57 21V26.43C58.6913 28.0516 60.0773 29.964 61.092 32.076L61.506 33H63C63.7348 33.0001 64.444 33.2699 64.9931 33.7581C65.5422 34.2464 65.893 34.9192 65.979 35.649L66 36V45C66.0001 45.4938 65.8783 45.9799 65.6454 46.4153C65.4125 46.8508 65.0757 47.222 64.665 47.496L64.341 47.682L60.837 49.437C59.4025 52.2123 57.3246 54.6039 54.777 56.412L54 56.934V60C53.9999 60.7348 53.7301 61.444 53.2419 61.9931C52.7536 62.5422 52.0808 62.893 51.351 62.979L51 63H42C41.2652 62.9999 40.556 62.7301 40.0069 62.2419C39.4578 61.7536 39.107 61.0808 39.021 60.351L39 60H36C35.9999 60.7348 35.7301 61.444 35.2419 61.9931C34.7536 62.5422 34.0808 62.893 33.351 62.979L33 63H24C23.2652 62.9999 22.556 62.7301 22.0069 62.2419C21.4578 61.7536 21.107 61.0808 21.021 60.351L21 60V56.934C18.8327 55.5484 16.9607 53.7482 15.4913 51.6369C14.022 49.5255 12.9843 47.1446 12.438 44.631C10.669 44.1045 9.10444 43.0472 7.95616 41.6022C6.80787 40.1572 6.13129 38.3942 6.018 36.552L6 36V34.5C6.00085 33.7354 6.29364 32.9999 6.81855 32.4439C7.34345 31.8879 8.06086 31.5533 8.82418 31.5085C9.58751 31.4637 10.3391 31.712 10.9255 32.2028C11.5119 32.6936 11.8887 33.3897 11.979 34.149L12 34.5V36C12 36.444 12.096 36.867 12.27 37.245C12.7279 34.5441 13.7494 31.97 15.268 29.69C16.7866 27.4101 18.7682 25.4754 21.084 24.012C20.8711 22.1235 21.0594 20.2112 21.6366 18.4005C22.2137 16.5897 23.1666 14.9212 24.433 13.5042C25.6995 12.0871 27.2508 10.9534 28.9856 10.1772C30.7204 9.40101 32.5995 8.99987 34.5 9ZM51 24.84L42.726 26.91L42.366 26.979L42 27H31.5C28.4666 26.998 25.5209 28.0177 23.138 29.8946C20.755 31.7715 19.0735 34.3962 18.3648 37.3457C17.656 40.2951 17.9612 43.3973 19.2312 46.152C20.5012 48.9067 22.6619 51.1535 25.365 52.53C25.8005 52.7527 26.175 53.0785 26.4558 53.479C26.7366 53.8795 26.9152 54.3426 26.976 54.828L27 55.2V57H30C30.0001 56.2652 30.2699 55.556 30.7581 55.0069C31.2464 54.4578 31.9192 54.107 32.649 54.021L33 54H42C42.7348 54.0001 43.444 54.2699 43.9931 54.7581C44.5422 55.2464 44.893 55.9192 44.979 56.649L45 57H48V55.2C48.0003 54.6476 48.1531 54.1059 48.4416 53.6348C48.7301 53.1637 49.1431 52.7814 49.635 52.53C52.3879 51.1207 54.5767 48.8133 55.839 45.99C56.064 45.485 56.4242 45.052 56.88 44.739L57.237 44.529L60 43.146V39H59.379C58.7258 38.9998 58.0905 38.7864 57.5696 38.3922C57.0487 37.998 56.6707 37.4446 56.493 36.816C55.7425 34.1769 54.2064 31.8288 52.089 30.084C51.5015 29.5986 51.1207 28.9079 51.024 28.152L51 27.771V24.84ZM48 33C48.7957 33 49.5587 33.3161 50.1213 33.8787C50.6839 34.4413 51 35.2044 51 36C51 36.7956 50.6839 37.5587 50.1213 38.1213C49.5587 38.6839 48.7957 39 48 39C47.2043 39 46.4413 38.6839 45.8787 38.1213C45.3161 37.5587 45 36.7956 45 36C45 35.2044 45.3161 34.4413 45.8787 33.8787C46.4413 33.3161 47.2043 33 48 33ZM34.5 15C32.6829 15 30.9275 15.6597 29.5602 16.8565C28.1929 18.0533 27.3066 19.7059 27.066 21.507C28.5198 21.1694 30.0075 20.9993 31.5 21H41.631L41.841 20.949C41.4852 19.2659 40.5617 17.7562 39.2251 16.6731C37.8886 15.59 36.2203 14.9993 34.5 15Z" fill="white"/>
</g>
<defs>
<clipPath id="clip0_1_515">
<rect width="72" height="72" fill="white"/>
</clipPath>
</defs>
</svg>
