<svg width="65" height="65" viewBox="0 0 65 65" fill="none" xmlns="http://www.w3.org/2000/svg">
<path d="M8.59082 56.4092C11.7623 59.5833 16.8702 59.5833 27.0833 59.5833H37.9167C48.1298 59.5833 53.2377 59.5833 56.4092 56.4092C59.5833 53.2377 59.5833 48.1298 59.5833 37.9167C59.5833 34.7479 59.5833 32.0721 59.4885 29.7917M56.4092 19.4242C53.2377 16.25 48.1298 16.25 37.9167 16.25H27.0833C16.8702 16.25 11.7623 16.25 8.59082 19.4242C5.41666 22.5956 5.41666 27.7035 5.41666 37.9167C5.41666 41.0854 5.41666 43.7612 5.51145 46.0417M32.5 5.41666C37.6079 5.41666 40.1592 5.41666 41.7462 7.00374C43.3333 8.59082 43.3333 11.1421 43.3333 16.25M23.2537 7.00374C21.6667 8.59082 21.6667 11.1421 21.6667 16.25" stroke="white" stroke-width="5.4375" stroke-linecap="round"/>
<path d="M32.5 46.9435C35.4927 46.9435 37.9166 44.9231 37.9166 42.4315C37.9166 39.9398 35.4927 37.9167 32.5 37.9167C29.5073 37.9167 27.0833 35.8962 27.0833 33.4019C27.0833 30.9102 29.5073 28.8898 32.5 28.8898M32.5 46.9435C29.5073 46.9435 27.0833 44.9231 27.0833 42.4315M32.5 46.9435V48.75M32.5 28.8898V27.0833M32.5 28.8898C35.4927 28.8898 37.9166 30.9102 37.9166 33.4019" stroke="white" stroke-width="5.4375" stroke-linecap="round"/>
</svg>
