<svg width="18" height="30" viewBox="0 0 18 30" fill="none" xmlns="http://www.w3.org/2000/svg">
<path d="M15.5002 5.66667H7.5835C6.32372 5.66667 5.11554 6.16711 4.22474 7.05791C3.33394 7.94871 2.8335 9.15689 2.8335 10.4167C2.8335 11.6764 3.33394 12.8846 4.22474 13.7754C5.11554 14.6662 6.32372 15.1667 7.5835 15.1667H10.7502C12.0099 15.1667 13.2181 15.6671 14.1089 16.5579C14.9997 17.4487 15.5002 18.6569 15.5002 19.9167C15.5002 21.1764 14.9997 22.3846 14.1089 23.2754C13.2181 24.1662 12.0099 24.6667 10.7502 24.6667H2.8335M9.16683 24.6667V27.8333M9.16683 2.5V5.66667" stroke="white" stroke-width="4" stroke-linecap="round" stroke-linejoin="round"/>
</svg>
