<svg width="61" height="61" viewBox="0 0 61 61" fill="none" xmlns="http://www.w3.org/2000/svg">
<path d="M59 59L40 40M2 24.1667C2 27.0776 2.57336 29.9601 3.68734 32.6495C4.80132 35.3389 6.4341 37.7825 8.49247 39.8409C10.5508 41.8992 12.9945 43.532 15.6839 44.646C18.3732 45.76 21.2557 46.3333 24.1667 46.3333C27.0776 46.3333 29.9601 45.76 32.6495 44.646C35.3389 43.532 37.7825 41.8992 39.8409 39.8409C41.8992 37.7825 43.532 35.3389 44.646 32.6495C45.76 29.9601 46.3333 27.0776 46.3333 24.1667C46.3333 21.2557 45.76 18.3732 44.646 15.6839C43.532 12.9945 41.8992 10.5508 39.8409 8.49247C37.7825 6.4341 35.3389 4.80132 32.6495 3.68734C29.9601 2.57336 27.0776 2 24.1667 2C21.2557 2 18.3732 2.57336 15.6839 3.68734C12.9945 4.80132 10.5508 6.4341 8.49247 8.49247C6.4341 10.5508 4.80132 12.9945 3.68734 15.6839C2.57336 18.3732 2 21.2557 2 24.1667Z" stroke="white" stroke-width="4" stroke-linecap="round" stroke-linejoin="round"/>
</svg>
