<svg width="76" height="76" viewBox="0 0 76 76" fill="none" xmlns="http://www.w3.org/2000/svg">
<g clip-path="url(#clip0_1_631)">
<path d="M38 76C27.9218 76 18.2563 71.9964 11.1299 64.8701C4.00356 57.7437 0 48.0782 0 38C0 27.9218 4.00356 18.2563 11.1299 11.1299C18.2563 4.00356 27.9218 0 38 0C48.0782 0 57.7437 4.00356 64.8701 11.1299C71.9964 18.2563 76 27.9218 76 38C76 48.0782 71.9964 57.7437 64.8701 64.8701C57.7437 71.9964 48.0782 76 38 76ZM45.6 26.6C45.6 27.664 44.802 29.64 44.004 30.4L38 36.404C35.834 38.608 34.2 42.484 34.2 45.6V49.4H41.8V45.6C41.8 44.498 42.598 42.56 43.396 41.8L49.4 35.796C51.566 33.592 53.2 29.716 53.2 26.6C53.2 22.5687 51.5986 18.7025 48.748 15.852C45.8975 13.0014 42.0313 11.4 38 11.4C33.9687 11.4 30.1025 13.0014 27.252 15.852C24.4014 18.7025 22.8 22.5687 22.8 26.6H30.4C30.4 24.5844 31.2007 22.6513 32.626 21.226C34.0513 19.8007 35.9844 19 38 19C40.0156 19 41.9487 19.8007 43.374 21.226C44.7993 22.6513 45.6 24.5844 45.6 26.6ZM34.2 57V64.6H41.8V57H34.2Z" fill="white"/>
</g>
<defs>
<clipPath id="clip0_1_631">
<rect width="76" height="76" fill="white"/>
</clipPath>
</defs>
</svg>
